<svg xmlns="http://www.w3.org/2000/svg" viewBox="0 0 101.16 100"><defs><style>.cls-1{fill:none;}.cls-2{fill:#80af52;}</style></defs><title>Asset 2</title><g id="Layer_2" data-name="Layer 2"><g id="Layer_1-2" data-name="Layer 1"><rect class="cls-1" width="101.16" height="100"/><g id="F339_Check_circle_complete_ok" data-name="F339, Check, circle, complete, ok"><path class="cls-2" d="M50.07,20.8A28.75,28.75,0,1,1,21,49.5,29,29,0,0,1,50.07,20.8Z"/><path d="M50.07,79.5a30.23,30.23,0,0,1-21.44-8.8,29.7,29.7,0,0,1,0-42.4,30.53,30.53,0,0,1,42.89,0,29.7,29.7,0,0,1,0,42.4A30.25,30.25,0,0,1,50.07,79.5Zm0-57.5A27.5,27.5,0,1,0,77.89,49.5,27.65,27.65,0,0,0,50.07,22Z"/><path d="M43.7,64.5a1.81,1.81,0,0,1-1-.4l-6.27-7.5a1.27,1.27,0,0,1,.2-1.8,1.31,1.31,0,0,1,1.82.2l5.16,6.2,18-28.5a1.21,1.21,0,0,1,1.72-.4,1.18,1.18,0,0,1,.4,1.7l-19,30a1,1,0,0,1-1,.5Z"/></g></g></g></svg>