<svg xmlns="http://www.w3.org/2000/svg" viewBox="0 0 101.16 100"><defs><style>.cls-1{fill:none;}.cls-2{fill:#e64c42;}</style></defs><title>Asset 3</title><g id="Layer_2" data-name="Layer 2"><g id="Layer_1-2" data-name="Layer 1"><rect class="cls-1" width="101.16" height="100"/><g id="F341_Circle_delete_hide" data-name="F341, Circle, delete, hide"><path class="cls-2" d="M50.07,20.8A28.75,28.75,0,1,1,21,49.5,29,29,0,0,1,50.07,20.8Z"/><path d="M50.07,79.5a30.23,30.23,0,0,1-21.44-8.8,29.7,29.7,0,0,1,0-42.4,30.53,30.53,0,0,1,42.89,0,29.7,29.7,0,0,1,0,42.4A30.25,30.25,0,0,1,50.07,79.5Zm0-57.5A27.5,27.5,0,1,0,77.89,49.5,27.65,27.65,0,0,0,50.07,22Z"/><path d="M61.5,62a1.26,1.26,0,0,1-.91-.4L37.83,39.1a1.27,1.27,0,0,1,0-1.8,1.29,1.29,0,0,1,1.82,0L62.41,59.8a1.25,1.25,0,0,1,0,1.8A1.23,1.23,0,0,1,61.5,62Z"/><path d="M38.74,62a1.3,1.3,0,0,1-.91-2.2L60.59,37.3a1.29,1.29,0,0,1,1.82,0,1.25,1.25,0,0,1,0,1.8L39.55,61.6A.92.92,0,0,1,38.74,62Z"/></g></g></g></svg>