<svg xmlns="http://www.w3.org/2000/svg" viewBox="0 0 22 22"><title>Asset 1</title><g id="Layer_2" data-name="Layer 2"><g id="Layer_1-2" data-name="Layer 1"><path d="M20.63,5.37a11.22,11.22,0,0,0-1.74-2.23,12.18,12.18,0,0,0-2.27-1.76L18,0a4.94,4.94,0,0,1,3,1,4.94,4.94,0,0,1,1,3ZM9,17H5V13l.48-.48a8.75,8.75,0,0,1,2.35,1.65,8.32,8.32,0,0,1,1.65,2.35ZM19.48,6.52l-8.85,8.85a11.22,11.22,0,0,0-1.74-2.23,12.18,12.18,0,0,0-2.27-1.76l8.86-8.86a8.33,8.33,0,0,1,4,4ZM3,3V19H19V12l3-3V20a2,2,0,0,1-2,2H2a2,2,0,0,1-2-2V2A2,2,0,0,1,2,0H13L10,3Z"/></g></g></svg>