<svg xmlns="http://www.w3.org/2000/svg" viewBox="0 0 101.16 100"><defs><style>.cls-1{fill:none;}.cls-2{fill:#57606f;}</style></defs><title>Asset 5</title><g id="Layer_2" data-name="Layer 2"><g id="Layer_1-2" data-name="Layer 1"><rect class="cls-1" width="101.16" height="100"/><g id="F338_Close_delete_hide_minus" data-name="F338, Close, delete, hide, minus"><rect class="cls-2" x="21.04" y="20.8" width="58.17" height="57.5"/><path d="M79.21,79.5H21a1.33,1.33,0,0,1-1.31-1.3V20.8A1.33,1.33,0,0,1,21,19.5H79.21a1.33,1.33,0,0,1,1.31,1.3V78.3A1.49,1.49,0,0,1,79.21,79.5Zm-57-2.5H77.89V22H22.25Z"/><path d="M71.62,50.8h-43a1.3,1.3,0,1,1,0-2.6h43a1.33,1.33,0,0,1,1.32,1.3A1.5,1.5,0,0,1,71.62,50.8Z"/></g></g></g></svg>