<svg xmlns="http://www.w3.org/2000/svg" viewBox="0 0 101.16 100"><defs><style>.cls-1{fill:none;}.cls-2{fill:#b3b3b3;}.cls-3{fill:#313a52;}</style></defs><title>Asset 4</title><g id="Layer_2" data-name="Layer 2"><g id="Layer_1-2" data-name="Layer 1"><rect class="cls-1" width="101.16" height="100"/><g id="F328_Ban_denied_stop" data-name="F328, Ban, denied, stop"><rect class="cls-2" x="36.21" y="44.5" width="27.82" height="7.5"/><path class="cls-3" d="M64.64,20.8l14.57,28L64.64,78.3H35.51L21,49.5,35.61,20.7h29ZM64,52V44.5H36.21V52Z"/><path d="M64.64,79.5H35.51a1.26,1.26,0,0,1-1.12-.7L19.83,50.1a1.08,1.08,0,0,1,0-1.1L34.39,20.2a1.26,1.26,0,0,1,1.12-.7H64.64a1.23,1.23,0,0,1,1.11.7l14.57,28a1.08,1.08,0,0,1,0,1.1L65.75,78.8A1.23,1.23,0,0,1,64.64,79.5ZM36.32,77H63.83l14-28.2L63.83,22H36.32l-14,27.5Z"/><path d="M64,53.3H36.21A1.33,1.33,0,0,1,34.9,52V44.5a1.33,1.33,0,0,1,1.31-1.3H64a1.33,1.33,0,0,1,1.32,1.3V52A1.49,1.49,0,0,1,64,53.3Zm-26.6-2.5H62.72v-5H37.43Z"/></g></g></g></svg>